<?xml version="1.0" encoding="utf-8"?>
<!-- Generator: Adobe Illustrator 21.0.2, SVG Export Plug-In . SVG Version: 6.00 Build 0)  -->
<svg version="1.1" id="Layer_1" xmlns="http://www.w3.org/2000/svg" xmlns:xlink="http://www.w3.org/1999/xlink" x="0px" y="0px"
	 viewBox="0 0 337.4 67.4" style="enable-background:new 0 0 337.4 67.4;" xml:space="preserve">
<style type="text/css">
	.st0{fill:#800000;}
	.st1{fill:#D8D8D8;}
</style>
<g>
	<g>
		<path d="M161.1,15.4V3.5h7.2v0.8H162V9h5.4v0.8H162v4.8h6.3v0.8C168.3,15.4,161.1,15.4,161.1,15.4z"/>
		<path d="M179.2,10.6c0,0.5,0,0.9-0.1,1.4s-0.2,0.9-0.3,1.3c-0.2,0.4-0.4,0.8-0.7,1.1c-0.4,0.4-0.8,0.6-1.3,0.8s-1.1,0.3-1.7,0.3
			h-4v-12h4c1.3,0,2.3,0.4,3,1.1c0.3,0.3,0.5,0.6,0.7,1s0.3,0.8,0.3,1.2c0.1,0.4,0.1,0.8,0.1,1.3c0,0.4,0,0.8,0,1.2
			S179.2,10.2,179.2,10.6z M178.3,8.3c0-0.4,0-0.7-0.1-1.1s-0.1-0.7-0.3-1c-0.1-0.3-0.3-0.6-0.5-0.9c-0.3-0.4-0.7-0.6-1.2-0.7
			c-0.4-0.1-0.9-0.2-1.4-0.2H172v10.3h2.9c0.5,0,0.9-0.1,1.4-0.2c0.4-0.1,0.8-0.4,1.2-0.7c0.2-0.2,0.4-0.5,0.5-0.9s0.2-0.7,0.3-1.2
			c0.1-0.4,0.1-0.8,0.1-1.2s0-0.8,0-1.1S178.3,8.6,178.3,8.3z"/>
		<path d="M191.2,15.4h-0.9L187.5,5l-2.8,10.4h-0.9l-3-11.9h1l2.5,10.4L187,3.5h0.9l2.8,10.4l2.5-10.4h1L191.2,15.4z"/>
		<path d="M203.2,15.4l-1-2.9h-5.6l-1,2.9h-1L199,3.5h0.8l4.4,11.9H203.2z M199.4,4.7l-2.5,7h5L199.4,4.7z"/>
		<path d="M213.3,15.4l-2.8-5.5h-3.3v5.5h-0.9V3.5h4.5c0.5,0,0.9,0.1,1.3,0.2c0.4,0.1,0.8,0.3,1.1,0.6s0.5,0.6,0.7,1
			s0.3,0.9,0.3,1.4c0,0.9-0.2,1.6-0.7,2.2s-1.2,0.9-2,1l2.9,5.5C214.4,15.4,213.3,15.4,213.3,15.4z M213.1,5.7
			c-0.1-0.3-0.3-0.6-0.5-0.8c-0.2-0.2-0.5-0.3-0.8-0.4s-0.7-0.1-1.1-0.1h-3.5v4.8h3.5c0.4,0,0.7,0,1.1-0.1c0.3-0.1,0.6-0.2,0.8-0.4
			s0.4-0.5,0.5-0.8s0.2-0.7,0.2-1.1C213.3,6.3,213.2,6,213.1,5.7z"/>
		<path d="M225.4,10.6c0,0.5,0,0.9-0.1,1.4s-0.2,0.9-0.3,1.3c-0.2,0.4-0.4,0.8-0.7,1.1c-0.4,0.4-0.8,0.6-1.3,0.8s-1.1,0.3-1.7,0.3
			h-4v-12h4c1.3,0,2.3,0.4,3,1.1c0.3,0.3,0.5,0.6,0.7,1s0.3,0.8,0.3,1.2c0.1,0.4,0.1,0.8,0.1,1.3c0,0.4,0,0.8,0,1.2
			S225.4,10.2,225.4,10.6z M224.5,8.3c0-0.4,0-0.7-0.1-1.1s-0.1-0.7-0.3-1c-0.1-0.3-0.3-0.6-0.5-0.9c-0.3-0.4-0.7-0.6-1.2-0.7
			c-0.4-0.1-0.9-0.2-1.4-0.2h-2.9v10.3h2.9c0.5,0,0.9-0.1,1.4-0.2c0.4-0.1,0.8-0.4,1.2-0.7c0.2-0.2,0.4-0.5,0.5-0.9s0.2-0.7,0.3-1.2
			c0-0.4,0.1-0.8,0.1-1.2s0-0.8,0-1.1S224.5,8.6,224.5,8.3z"/>
		<path d="M232.9,15.4V3.5h0.9v11.1h6.3v0.8C240.1,15.4,232.9,15.4,232.9,15.4z"/>
		<path d="M243.3,15.3c-0.2,0.2-0.3,0.2-0.5,0.2s-0.4-0.1-0.5-0.2c-0.2-0.2-0.2-0.3-0.2-0.5s0.1-0.4,0.2-0.5
			c0.2-0.2,0.3-0.2,0.5-0.2s0.4,0.1,0.5,0.2c0.2,0.2,0.2,0.3,0.2,0.5C243.6,14.9,243.5,15.1,243.3,15.3z"/>
		<path d="M258.7,15.4l-3.8-6.7l-2.8,3.4v3.2h-0.9V3.5h0.9V11l6-7.4h1.1l-3.7,4.5l4.3,7.4h-1.1V15.4z"/>
		<path d="M268.9,15.4l-1-2.9h-5.6l-1,2.9h-1l4.4-11.9h0.8l4.4,11.9H268.9z M265.1,4.7l-2.5,7h5L265.1,4.7z"/>
		<path d="M279.7,8.4c-0.2,0.4-0.4,0.8-0.8,1.1c-0.3,0.3-0.7,0.5-1.1,0.7s-0.9,0.2-1.4,0.2h-3.5v5.1H272v-12h4.4
			c0.5,0,1,0.1,1.4,0.2c0.4,0.2,0.8,0.4,1.1,0.7c0.3,0.3,0.6,0.6,0.8,1.1c0.2,0.4,0.3,0.9,0.3,1.5C279.9,7.5,279.8,8,279.7,8.4z
			 M278.8,5.8c-0.1-0.3-0.3-0.6-0.6-0.8c-0.2-0.2-0.5-0.4-0.9-0.5c-0.3-0.1-0.7-0.2-1.1-0.2h-3.4v5.3h3.4c0.4,0,0.8-0.1,1.1-0.2
			c0.3-0.1,0.6-0.3,0.9-0.5c0.2-0.2,0.4-0.5,0.6-0.8S279,7.4,279,7C279,6.5,279,6.1,278.8,5.8z"/>
		<path d="M282.5,15.4V3.5h0.9v11.1h6.3v0.8C289.7,15.4,282.5,15.4,282.5,15.4z"/>
		<path d="M299.1,15.4l-1-2.9h-5.6l-1,2.9h-1l4.4-11.9h0.8l4.4,11.9H299.1z M295.3,4.7l-2.5,7h5L295.3,4.7z"/>
		<path d="M309.9,15.4L303,5v10.4h-0.9V3.5h0.9l6.9,10.3V3.5h0.9v11.9H309.9z"/>
		<path d="M314.3,17.7v-3.4h1.1v2.3L314.3,17.7z"/>
		<path d="M322.9,6.1V3.5h1.1v2.6H322.9z"/>
		<path d="M328,17.5h-0.9l5-11.3h-5v1.9h-0.9V5.5h6.7v0.8L328,17.5z"/>
		<path d="M336.6,15.4v-9l-2.2,1.9v-1l2.2-1.9h0.9v10H336.6z"/>
		<path d="M172.9,39.1l-9.7-14.7v14.7h-1.3V22.3h1.3l9.7,14.6V22.3h1.3v16.9L172.9,39.1L172.9,39.1z"/>
		<path d="M179.4,39.1V22.3h10.2v1.1h-9v6.7h7.6v1.1h-7.6V38h9v1.1H179.4z"/>
		<path d="M206.2,39.1h-1.3l-4-14.7l-4,14.7h-1.3l-4.2-16.9h1.4l3.6,14.7l3.9-14.7h1.3l3.9,14.7l3.6-14.7h1.4L206.2,39.1z"/>
		<path class="st0" d="M223.8,39.1h-1.1l-5.5-16.9h1.3l4.7,14.6l4.7-14.6h1.4L223.8,39.1z"/>
		<path class="st0" d="M232.2,39.1V22.3h10.2v1.1h-9v6.7h7.6v1.1h-7.6V38h9v1.1H232.2z"/>
		<path class="st0" d="M257.3,39.1l-9.7-14.7v14.7h-1.3V22.3h1.3l9.7,14.6V22.3h1.3v16.9L257.3,39.1L257.3,39.1z"/>
		<path class="st0" d="M268.2,23.4v15.7H267V23.4h-5v-1.1h11.3v1.1H268.2z"/>
		<path class="st0" d="M287.5,35.9c-0.3,0.7-0.7,1.3-1.2,1.8s-1.1,0.9-1.8,1.2c-0.7,0.3-1.5,0.4-2.3,0.4c-0.9,0-1.6-0.1-2.3-0.4
			c-0.7-0.3-1.3-0.7-1.8-1.2s-0.9-1.1-1.2-1.8c-0.3-0.7-0.4-1.4-0.4-2.3V22.3h1.3v11.2c0,0.7,0.1,1.3,0.3,1.9
			c0.2,0.6,0.5,1.1,0.9,1.5s0.9,0.7,1.4,0.9c0.6,0.2,1.2,0.3,1.8,0.3c0.7,0,1.3-0.1,1.8-0.3c0.6-0.2,1-0.5,1.4-0.9s0.7-0.9,0.9-1.5
			c0.2-0.6,0.3-1.2,0.3-1.9V22.3h1.3v11.4C287.9,34.5,287.8,35.2,287.5,35.9z"/>
		<path class="st0" d="M302.8,39.1l-4-7.8h-4.6v7.8h-1.3V22.3h6.4c0.7,0,1.3,0.1,1.9,0.3c0.6,0.2,1.1,0.5,1.5,0.9s0.8,0.9,1,1.4
			c0.2,0.6,0.4,1.2,0.4,1.9c0,1.3-0.4,2.3-1.1,3.1c-0.7,0.8-1.6,1.3-2.8,1.5l4.1,7.8L302.8,39.1L302.8,39.1z M302.6,25.3
			c-0.2-0.4-0.4-0.8-0.8-1.1c-0.3-0.3-0.7-0.5-1.2-0.6s-1-0.2-1.5-0.2h-5v6.8h5c0.5,0,1-0.1,1.5-0.2s0.9-0.3,1.2-0.6
			c0.3-0.3,0.6-0.6,0.8-1.1c0.2-0.4,0.3-0.9,0.3-1.5C302.9,26.2,302.8,25.7,302.6,25.3z"/>
		<path class="st0" d="M308.5,39.1V22.3h10.2v1.1h-9v6.7h7.6v1.1h-7.6V38h9v1.1H308.5z"/>
		<path d="M169.6,62.4c-0.7,0.4-1.6,0.6-2.6,0.6c-0.8,0-1.6-0.2-2.3-0.5s-1.4-0.7-1.9-1.3c-0.4-0.4-0.7-0.8-0.9-1.2
			s-0.4-0.9-0.5-1.4s-0.2-1.1-0.2-1.8s0-1.5,0-2.5c0-0.9,0-1.8,0-2.5s0.1-1.3,0.2-1.8c0.1-0.5,0.3-1,0.5-1.4s0.5-0.8,0.9-1.2
			c0.6-0.6,1.2-1,1.9-1.3s1.5-0.5,2.3-0.5c1,0,1.9,0.2,2.6,0.6c0.7,0.4,1.5,0.9,2.1,1.5l-0.9,0.9c-0.3-0.3-0.6-0.5-0.9-0.8
			c-0.3-0.2-0.6-0.4-0.9-0.6c-0.3-0.2-0.6-0.3-1-0.4c-0.3-0.1-0.7-0.1-1.2-0.1c-0.6,0-1.2,0.1-1.7,0.3c-0.6,0.2-1,0.5-1.5,1
			c-0.3,0.3-0.5,0.6-0.7,1c-0.2,0.3-0.3,0.7-0.4,1.2c-0.1,0.5-0.1,1-0.2,1.7c0,0.6,0,1.4,0,2.3c0,0.9,0,1.7,0,2.3s0.1,1.2,0.2,1.7
			c0.1,0.5,0.2,0.9,0.4,1.2s0.4,0.7,0.7,1c0.4,0.4,0.9,0.8,1.5,1s1.1,0.3,1.7,0.3c0.4,0,0.8,0,1.2-0.1c0.3-0.1,0.7-0.2,1-0.4
			s0.6-0.3,0.9-0.6c0.3-0.2,0.6-0.5,0.9-0.8l0.9,0.9C171,61.5,170.3,62,169.6,62.4z"/>
		<path d="M186,62.8v-7.9h-8.8v7.9H176V46h1.3v7.8h8.8V46h1.3v16.9H186V62.8z"/>
		<path d="M202.5,62.8l-1.5-4.1h-7.9l-1.5,4.1h-1.4l6.2-16.9h1.1l6.2,16.9C203.7,62.8,202.5,62.8,202.5,62.8z M197.1,47.7l-3.5,9.9
			h7.1L197.1,47.7z"/>
		<path d="M206.8,62.8V46h1.3v15.7h9v1.1H206.8z"/>
		<path d="M220.3,62.8V46h1.3v15.7h9v1.1H220.3z"/>
		<path d="M233.9,62.8V46h10.2v1.1h-9v6.7h7.6v1.1h-7.6v6.8h9v1.1C244.1,62.8,233.9,62.8,233.9,62.8z"/>
		<path d="M259.1,62.8l-9.7-14.7v14.7h-1.3V46h1.3l9.7,14.6V46h1.3v16.9h-1.3V62.8z"/>
		<path d="M276.2,59.2c-0.2,0.6-0.6,1.2-1.1,1.8c-0.6,0.6-1.2,1.1-2,1.4c-0.8,0.3-1.6,0.5-2.4,0.5s-1.6-0.2-2.3-0.5
			c-0.7-0.3-1.4-0.7-1.9-1.3c-0.4-0.4-0.7-0.8-0.9-1.2c-0.2-0.4-0.4-0.9-0.5-1.4s-0.2-1.1-0.2-1.8s0-1.5,0-2.5c0-0.9,0-1.8,0-2.5
			s0.1-1.3,0.2-1.8s0.3-1,0.5-1.4s0.5-0.8,0.9-1.2c0.6-0.6,1.2-1,1.9-1.3c0.7-0.3,1.5-0.5,2.3-0.5c1.1,0,2,0.2,2.8,0.6
			c0.8,0.4,1.5,1,2.3,1.7l-0.9,0.9c-0.3-0.3-0.6-0.6-0.9-0.9c-0.3-0.3-0.6-0.5-0.9-0.7s-0.7-0.3-1-0.4c-0.4-0.1-0.8-0.1-1.3-0.1
			c-0.6,0-1.2,0.1-1.7,0.3c-0.6,0.2-1,0.5-1.5,1c-0.3,0.3-0.5,0.6-0.7,1c-0.2,0.3-0.3,0.7-0.4,1.2s-0.1,1-0.2,1.7c0,0.6,0,1.4,0,2.3
			c0,0.9,0,1.7,0,2.3s0.1,1.2,0.2,1.7s0.2,0.9,0.4,1.2c0.2,0.3,0.4,0.7,0.7,1c0.4,0.4,0.9,0.8,1.5,1s1.1,0.3,1.7,0.3
			c0.7,0,1.3-0.1,1.9-0.4c0.6-0.3,1.1-0.7,1.6-1.2c0.4-0.5,0.6-0.9,0.8-1.5c0.2-0.5,0.2-1.1,0.2-1.9v-1.5h-4.5V54h5.8v3
			C276.5,57.8,276.4,58.6,276.2,59.2z"/>
		<path d="M280.9,62.8V46h10.2v1.1h-9v6.7h7.6v1.1h-7.6v6.8h9v1.1C291.1,62.8,280.9,62.8,280.9,62.8z"/>
	</g>
	<g>
		<polygon points="39.6,1.2 39.6,46.1 14.1,1.2 0,1.2 0,65.6 12.5,65.6 12.5,19.9 38.7,65.6 52.2,65.6 52.2,37.5 39.9,1.2 		"/>
		<polygon class="st1" points="39.9,1.2 52.2,37.5 52.2,1.2 		"/>
	</g>
	<g>
		<path class="st0" d="M84.3,7.9c3.2-3.2,6.8-5.5,11-6.7h-13L68.2,50.1l-14-48.9h-2.1v36.3l9.5,28.1h12.7L79,52
			c-2.4-5-3.6-11-3.6-18.1C75.4,22.7,78.4,14,84.3,7.9z"/>
		<path d="M115.2,51.1c-2.4,3.1-5.9,4.6-10.6,4.6c-4.5,0-8.2-1.8-11.1-5.4c-2.9-3.6-4.4-9-4.4-16.2s1.4-12.8,4.1-16.7
			c2.8-3.9,6.5-5.9,11.3-5.9c4.7,0,8.3,1.4,10.7,4.2c1.3,1.6,2.4,3.9,3.3,7H132c-0.2-4-1.7-8-4.4-12C122.7,3.6,114.8,0,104.1,0
			c-3.1,0-6,0.4-8.7,1.2h1L79,52c1.1,2.4,2.6,4.5,4.2,6.4c5.2,5.9,12.4,8.9,21.6,8.9c7.4,0,13.5-2.2,18.2-6.6
			c4.7-4.4,7.7-10.1,8.8-17.1h-13.4C117.6,47,116.5,49.5,115.2,51.1z"/>
		<path class="st1" d="M95.4,1.2c-4.2,1.3-7.9,3.5-11,6.7c-6,6.1-8.9,14.7-8.9,26c0,7,1.2,13.1,3.6,18.1L96.3,1.2H95.4z"/>
	</g>
	<rect x="145" y="1.2" width="1.1" height="64.4"/>
</g>
</svg>
